<svg width="48" height="49" viewBox="0 0 48 49" fill="none" xmlns="http://www.w3.org/2000/svg">
<g clip-path="url(#clip0_23_218)">
<g clip-path="url(#clip1_23_218)">
<path d="M39.1726 0.160156C34.6233 0.160156 30.8673 3.62094 30.3977 8.04828H24.2644C23.7466 8.04828 23.3269 8.468 23.3269 8.98578C23.3269 9.50356 23.7466 9.92328 24.2644 9.92328H36.9094L31.407 15.4277C30.3858 16.0006 28.6841 15.9867 27.7025 15.3818C26.0881 14.3889 23.561 14.3891 21.9502 15.3818C20.9406 16.0028 19.1693 16.0027 18.1605 15.3822C17.1168 14.739 15.689 14.5129 14.3737 14.7028L10.8657 9.92338H15.8456C16.3634 9.92338 16.7831 9.50366 16.7831 8.98588C16.7831 8.46809 16.3634 8.04838 15.8456 8.04838H9.48945L4.44898 1.18081C4.14251 0.763438 3.55592 0.67325 3.13845 0.979719C2.72108 1.28609 2.63098 1.87278 2.93736 2.29025L7.16361 8.04828H0.937482C0.558357 8.04828 0.216545 8.27666 0.0714196 8.62691C-0.0737054 8.97716 0.0064508 9.38037 0.274482 9.6485L7.46351 16.8399C7.47289 16.8493 7.48189 16.859 7.49173 16.8681L13.529 22.9074L15.4191 27.3386C15.9282 28.532 16.5728 29.2717 18.2107 29.2717H19.1175V40.2592L10.9285 46.476C10.608 46.7194 10.4785 47.1403 10.6069 47.5218C10.7352 47.9034 11.0929 48.1602 11.4954 48.1602H28.6119C29.0144 48.1602 29.372 47.9034 29.5005 47.5218C29.6289 47.1403 29.4995 46.7195 29.1789 46.4761L20.9925 40.2593V29.2717H21.8992C23.5371 29.2717 24.1817 28.532 24.6908 27.3386L26.5808 22.9075L32.6181 16.8683C32.628 16.8592 32.6371 16.8494 32.6465 16.8399L33.6296 15.8564C35.1934 17.1247 37.1291 17.8142 39.1724 17.8142C44.0398 17.8142 47.9998 13.8538 47.9998 8.98588C48 4.11931 44.0401 0.160156 39.1726 0.160156ZM8.70298 15.4277L3.20033 9.92328H8.53995L12.5045 15.3249C12.4718 15.3438 12.4388 15.3625 12.4068 15.3822C11.4259 15.9867 9.7242 16.0006 8.70298 15.4277ZM25.8274 46.2852H14.2808L20.055 41.9016L25.8274 46.2852ZM22.9663 26.6028C22.6593 27.3224 22.5596 27.3966 21.8993 27.3966H18.2108C17.5505 27.3966 17.4508 27.3223 17.1439 26.6028L15.7395 23.3102H24.3707L22.9663 26.6028ZM25.4014 21.4353H14.7087L10.9805 17.7058C11.8553 17.6425 12.7054 17.4006 13.3896 16.9788C14.3995 16.3577 16.1691 16.3575 17.1775 16.9788C18.791 17.9712 21.3189 17.9711 22.9332 16.9783C23.9407 16.3575 25.7105 16.3577 26.7197 16.9783C27.4044 17.4003 28.2545 17.6424 29.1296 17.7058L25.4014 21.4353ZM32.2859 8.04828C32.4506 6.83159 32.9324 5.71484 33.6434 4.78184L36.9095 8.04828H32.2859ZM38.2351 15.8757C37.0414 15.7158 35.9202 15.2524 34.9643 14.5214L38.2351 11.2497V15.8757ZM38.2351 6.72228L34.9693 3.45613C35.9022 2.74522 37.0189 2.26363 38.2351 2.09891V6.72228ZM46.0609 8.04828H41.4357L44.7032 4.78044C45.4149 5.71372 45.8957 6.8315 46.0609 8.04828ZM40.1101 2.10013C41.3265 2.26484 42.4439 2.74428 43.377 3.455L40.1101 6.72228V2.10013ZM40.1101 15.8742V11.2494L43.3769 14.5166C42.4436 15.2275 41.3268 15.7093 40.1101 15.8742ZM44.7032 13.1911L41.4357 9.92328H46.0609C45.8957 11.1403 45.4147 12.2579 44.7032 13.1911Z" fill="white"/>
<path d="M20.0551 9.92334H20.0604C20.5782 9.92334 20.9953 9.50362 20.9953 8.98584C20.9953 8.46806 20.573 8.04834 20.0552 8.04834C19.5374 8.04834 19.1177 8.46806 19.1177 8.98584C19.1177 9.50362 19.5373 9.92334 20.0551 9.92334Z" fill="white"/>
</g>
</g>
<defs>
<clipPath id="clip0_23_218">
<rect width="48" height="48" fill="white" transform="translate(0 0.160156)"/>
</clipPath>
<clipPath id="clip1_23_218">
<rect width="48" height="48" fill="white" transform="translate(0 0.160156)"/>
</clipPath>
</defs>
</svg>
