<svg width="48" height="48" viewBox="0 0 48 48" fill="none" xmlns="http://www.w3.org/2000/svg">
<g clip-path="url(#clip0_22_22)">
<g clip-path="url(#clip1_22_22)">
<path d="M38.0625 19.6875C38.0625 18.1201 37.4164 16.6563 36.2948 15.604C36.5348 14.6206 36.6562 13.6328 36.6562 12.6562C36.6562 5.67759 30.9787 0 24 0C17.0213 0 11.3438 5.67759 11.3438 12.6562C11.3438 13.6547 11.4596 14.6423 11.689 15.6037C10.5775 16.6518 9.9375 18.1154 9.9375 19.6875C9.9375 22.4436 11.9305 24.7414 14.5506 25.2196L22.682 47.084C22.8867 47.6347 23.4124 48 24 48C24.5876 48 25.1133 47.6347 25.318 47.084L33.4494 25.2196C36.0696 24.7414 38.0625 22.4436 38.0625 19.6875ZM17.4627 24.9815C18.3645 24.6568 19.1593 24.1076 19.7812 23.4022C20.8128 24.5723 22.3211 25.3125 24 25.3125C25.6789 25.3125 27.1872 24.5723 28.2188 23.4022C28.5966 23.8307 29.0375 24.2023 29.5282 24.5001L20.1806 32.2897L17.4627 24.9815ZM24 42.5595L21.2201 35.0846L29.2768 28.3707L24 42.5595ZM32.4375 22.5C30.8867 22.5 29.625 21.2383 29.625 19.6875C29.625 18.9109 28.9954 18.2812 28.2188 18.2812C27.4421 18.2812 26.8125 18.9109 26.8125 19.6875C26.8125 21.2383 25.5508 22.5 24 22.5C22.4492 22.5 21.1875 21.2383 21.1875 19.6875C21.1875 18.9109 20.5579 18.2812 19.7812 18.2812C19.0046 18.2812 18.375 18.9109 18.375 19.6875C18.375 21.2383 17.1133 22.5 15.5625 22.5C14.0117 22.5 12.75 21.2383 12.75 19.6875C12.75 18.7175 13.2352 17.8313 14.0481 17.3169C14.5908 16.9735 14.8318 16.306 14.6338 15.695C14.3169 14.7174 14.1562 13.695 14.1562 12.6562C14.1562 7.22841 18.5722 2.8125 24 2.8125C29.4278 2.8125 33.8438 7.22841 33.8438 12.6562C33.8438 13.6557 33.6767 14.6782 33.347 15.695C33.149 16.3059 33.39 16.9734 33.9327 17.3168C34.7575 17.8388 35.25 18.7251 35.25 19.6875C35.25 21.2383 33.9883 22.5 32.4375 22.5Z" fill="white"/>
</g>
</g>
<defs>
<clipPath id="clip0_22_22">
<rect width="48" height="48" fill="white"/>
</clipPath>
<clipPath id="clip1_22_22">
<rect width="48" height="48" fill="white"/>
</clipPath>
</defs>
</svg>
