<svg width="48" height="49" viewBox="0 0 48 49" fill="none" xmlns="http://www.w3.org/2000/svg">
<g clip-path="url(#clip0_23_208)">
<g clip-path="url(#clip1_23_208)">
<path d="M44.1549 23.3784C46.6345 20.8988 48 17.6021 48 14.0954C48 10.5887 46.6345 7.29202 44.1549 4.81242C39.0362 -0.306288 30.7075 -0.306288 25.589 4.81242C25.5744 4.82695 25.5599 4.84166 25.5453 4.85628C24.8545 4.48811 24.0796 4.29265 23.2748 4.29265C21.9832 4.29265 20.7689 4.79572 19.8555 5.70895C18.942 6.62226 18.4391 7.83659 18.4391 9.12827C18.4391 10.2072 18.7912 11.2316 19.4392 12.0723L0 48.9672L36.8949 29.528C37.7356 30.176 38.7599 30.5281 39.8389 30.5281C41.1305 30.5281 42.3448 30.0251 43.2582 29.1118C44.7957 27.5744 45.0796 25.2509 44.1096 23.4233C44.1248 23.4084 44.1398 23.3934 44.1549 23.3784ZM17.3037 25.2684L21.8607 27.1059L23.6984 31.6633L25.4391 32.3652L18.3881 36.0803L16.7422 32.2244L12.8872 30.5792L16.6021 23.5283L17.3037 25.2684ZM11.5635 33.091L14.5857 34.3808L15.8761 37.4038L6.76092 42.2064L11.5635 33.091ZM28.7197 30.6367L25.873 29.4888L24.0352 24.9313L19.4782 23.094L18.3306 20.2476L21.5138 14.2059L34.7613 27.4535L28.7197 30.6367ZM42.1538 21.3773C41.8932 21.6379 41.6133 21.8891 41.3219 22.1238L40.0951 23.1123L41.2572 24.2743C42.0392 25.0564 42.0392 26.3288 41.2572 27.1109C40.8784 27.4897 40.3747 27.6983 39.8389 27.6983C39.3031 27.6983 38.7995 27.4897 38.4206 27.1109L21.8564 10.5465C21.4776 10.1676 21.2689 9.66398 21.2689 9.12827C21.2689 8.59256 21.4775 8.08883 21.8564 7.71C22.2352 7.33116 22.7389 7.1225 23.2747 7.1225C23.8105 7.1225 24.3141 7.33116 24.6934 7.71047L25.8555 8.8715L26.8434 7.64529C27.0782 7.3539 27.3293 7.07402 27.59 6.81338C31.6052 2.79816 38.1385 2.79816 42.1538 6.81338C44.0989 8.75849 45.1701 11.3446 45.1701 14.0953C45.1701 16.8461 44.0988 19.4322 42.1538 21.3773Z" fill="white"/>
</g>
</g>
<defs>
<clipPath id="clip0_23_208">
<rect width="48" height="48" fill="white" transform="translate(0 0.970215)"/>
</clipPath>
<clipPath id="clip1_23_208">
<rect width="48" height="48" fill="white" transform="translate(0 0.970215)"/>
</clipPath>
</defs>
</svg>
