<svg width="48" height="49" viewBox="0 0 48 49" fill="none" xmlns="http://www.w3.org/2000/svg">
<g clip-path="url(#clip0_23_212)">
<g clip-path="url(#clip1_23_212)">
<path d="M40.9064 7.9783C40.9969 7.72992 40.9851 7.45584 40.8734 7.21633C40.7617 6.97683 40.5594 6.79142 40.3111 6.70106L36.2678 5.22934C36.0197 5.13898 35.7455 5.15093 35.5061 5.26252C35.2666 5.3742 35.0813 5.57645 34.9909 5.82482L31.7147 14.8261C31.5506 14.5445 31.3755 14.2684 31.1878 13.9988C29.9681 12.2478 28.3306 10.8669 26.4191 9.96718C26.4362 9.80359 26.445 9.63761 26.445 9.46964C26.445 7.14341 24.7749 5.20085 22.5709 4.77553C22.1461 2.6096 20.234 0.970215 17.9455 0.970215H17.0978C16.5475 0.970215 16.1015 1.41635 16.1015 1.9665C16.1015 2.51665 16.5475 2.96279 17.0978 2.96279H17.9455C19.146 2.96279 20.1668 3.74447 20.5274 4.82545C18.4375 5.33674 16.8817 7.2244 16.8817 9.46964C16.8817 9.52762 16.884 9.58501 16.8861 9.64249C14.8013 10.4593 12.9453 11.866 11.5978 13.6678C10.0281 15.7666 9.19843 18.2652 9.19843 20.893V22.8572C9.19843 22.9283 9.2061 22.9974 9.22024 23.0643C8.56628 23.7543 8.16418 24.6853 8.16418 25.7088C8.16418 26.3821 8.33853 27.0153 8.64369 27.5665H8.02958C7.47933 27.5665 7.03329 28.0126 7.03329 28.5628C7.03329 29.8892 7.21243 31.1745 7.54608 32.3967C7.55385 32.4351 7.56451 32.4725 7.57667 32.5093C9.08335 37.8584 13.574 41.9693 19.1299 42.9244L14.0442 47.2124C13.7243 47.4821 13.607 47.9229 13.7506 48.3159C13.8941 48.7089 14.2679 48.9703 14.6864 48.9703H28.5264C28.527 48.9703 28.5277 48.9703 28.5284 48.9703C29.0786 48.9703 29.5247 48.5242 29.5247 47.974C29.5247 47.6499 29.3699 47.362 29.1303 47.1801L24.0828 42.9243C30.943 41.7449 36.1795 35.7543 36.1795 28.5627C36.1795 28.0125 35.7334 27.5664 35.1832 27.5664H33.9027C34.1791 27.0671 34.3481 26.5007 34.3775 25.8979L40.9064 7.9783ZM36.5225 7.44249L38.6931 8.23255L33.3453 22.91C33.3462 22.8924 33.348 22.875 33.348 22.8571V20.8929C33.348 19.7308 33.182 18.5907 32.8626 17.4978L36.5225 7.44249ZM21.6634 6.68053C23.2013 6.68053 24.4525 7.93177 24.4525 9.46954C24.4525 11.0075 23.2013 12.2586 21.6634 12.2586C20.3683 12.2586 19.2767 11.3712 18.9642 10.1726C18.9568 10.1205 18.9463 10.0683 18.9302 10.0164C18.9292 10.0132 18.9278 10.0103 18.9268 10.0072C18.8926 9.83318 18.8743 9.65345 18.8743 9.46954C18.8743 7.93177 20.1254 6.68053 21.6634 6.68053ZM17.3793 11.5902C18.1623 13.1657 19.7881 14.2513 21.6634 14.2513C23.4223 14.2513 24.9615 13.296 25.792 11.8775C28.221 13.0888 30.0126 15.1858 30.8419 17.6932C30.8557 17.7535 30.8752 17.8119 30.8998 17.8684C31.1976 18.8279 31.3555 19.8447 31.3555 20.8929V21.9499C31.0908 21.8921 30.8164 21.8609 30.5345 21.8609C30.0113 21.8609 29.5772 22.2656 29.5406 22.7876C29.504 23.3096 29.8776 23.7708 30.3957 23.8438L31.1067 23.9438C31.8505 24.1856 32.3897 24.8854 32.3897 25.7088C32.3897 26.7319 31.5574 27.5641 30.5344 27.5641H19.4261C18.8759 27.5641 18.4298 28.0102 18.4298 28.5604V32.4661C18.4298 32.8711 18.1002 33.2007 17.6953 33.2007C17.2902 33.2007 16.9606 32.8711 16.9606 32.4661V28.5627V28.5604C16.9606 28.2962 16.8556 28.0428 16.6688 27.8559C16.482 27.6691 16.2285 27.5641 15.9643 27.5641H12.0119C10.989 27.5641 10.1567 26.7318 10.1567 25.7088C10.1567 24.6858 10.989 23.8535 12.0119 23.8535H26.024C26.5743 23.8535 27.0203 23.4074 27.0203 22.8572C27.0203 22.3071 26.5743 21.861 26.024 21.861H11.2275C11.2151 21.861 11.2033 21.8623 11.191 21.8628V20.893C11.191 16.7722 13.6421 13.1454 17.3793 11.5902ZM9.30513 31.2007C9.19036 30.6651 9.10896 30.1173 9.06502 29.559H14.9681V31.2007H9.30513ZM17.4137 46.9776L21.6065 43.4426L25.7993 46.9776H17.4137ZM21.6065 41.1432C16.304 41.1432 11.758 37.8453 9.90977 33.1933H15.0674C15.3865 34.345 16.4434 35.1932 17.6953 35.1932C18.9471 35.1932 20.0041 34.345 20.3232 33.1933H28.7779C29.3281 33.1933 29.7741 32.7472 29.7741 32.197C29.7741 31.6469 29.3281 31.2007 28.7779 31.2007H20.4224V29.559H34.1479C33.6383 36.0318 28.208 41.1432 21.6065 41.1432Z" fill="white"/>
</g>
</g>
<defs>
<clipPath id="clip0_23_212">
<rect width="48" height="48" fill="white" transform="translate(0 0.970215)"/>
</clipPath>
<clipPath id="clip1_23_212">
<rect width="48" height="48" fill="white" transform="translate(0 0.970215)"/>
</clipPath>
</defs>
</svg>
