<svg width="48" height="48" viewBox="0 0 48 48" fill="none" xmlns="http://www.w3.org/2000/svg">
<g clip-path="url(#clip0_23_139)">
<path d="M35.065 25.6862C37.156 23.1383 38.3077 19.917 38.3077 16.6154V12.9231C38.3077 12.1583 37.6878 11.5385 36.9231 11.5385H36.4274C35.9534 5.09653 30.5609 0 24 0C17.4391 0 12.0466 5.09653 11.5727 11.5385H11.0769C10.3122 11.5385 9.69234 12.1584 9.69234 12.9231V16.6154C9.69234 19.917 10.844 23.1383 12.9351 25.6862C14.7552 27.9037 17.2115 29.5281 19.9386 30.3368V40.1539H18C14.4371 40.1539 11.5385 43.0524 11.5385 46.6154C11.5385 47.3801 12.1584 48 12.9231 48H35.0769C35.8416 48 36.4615 47.38 36.4615 46.6154C36.4615 43.0524 33.563 40.1539 30 40.1539H28.0615V30.3367C30.7886 29.5281 33.2448 27.9037 35.065 25.6862ZM24 2.76919C29.0331 2.76919 33.1826 6.62512 33.6486 11.5384H14.3512C14.8174 6.62522 18.9668 2.76919 24 2.76919ZM26.6769 42.9231H30C31.5466 42.9231 32.8742 43.8788 33.423 45.2307H14.577C15.1259 43.8787 16.4533 42.9231 18 42.9231H21.3231C22.0878 42.9231 22.7076 42.3031 22.7076 41.5385V29.26C22.7076 28.6053 22.249 28.0401 21.6084 27.9052C16.3083 26.7888 12.4614 22.0406 12.4614 16.6154V14.3077H12.923H35.0768H35.5384V16.6154C35.5384 22.0407 31.6915 26.7888 26.3914 27.9053C25.7508 28.0403 25.2921 28.6054 25.2921 29.2601V41.5385C25.2923 42.3031 25.9122 42.9231 26.6769 42.9231Z" fill="white"/>
</g>
<defs>
<clipPath id="clip0_23_139">
<rect width="48" height="48" fill="white"/>
</clipPath>
</defs>
</svg>
