<svg width="32" height="32" viewBox="0 0 32 32" fill="none" xmlns="http://www.w3.org/2000/svg">
<g clip-path="url(#clip0_24_187)">
<path d="M15.9714 9.40039C12.3143 9.40039 9.34286 12.3718 9.34286 16.029C9.34286 19.6861 12.3143 22.6575 15.9714 22.6575C19.6286 22.6575 22.6 19.6861 22.6 16.029C22.6 12.3718 19.6286 9.40039 15.9714 9.40039ZM15.9714 19.829C13.8571 19.829 12.1714 18.1147 12.1714 16.029C12.1429 13.9147 13.8857 12.229 15.9714 12.229C18.0571 12.229 19.7714 13.9432 19.7714 16.029C19.8 18.1432 18.0857 19.829 15.9714 19.829Z" fill="#111111"/>
<path d="M22.7714 7.65723C21.9143 7.65723 21.2286 8.37151 21.2286 9.20008C21.2286 10.0287 21.9429 10.7429 22.7714 10.7429C23.6286 10.7429 24.3143 10.0287 24.3143 9.20008C24.3143 8.37151 23.6286 7.65723 22.7714 7.65723Z" fill="#111111"/>
<path d="M22.3429 3.14258H9.57143C6 3.14258 3.08572 6.08544 3.08572 9.62829V22.3997C3.08572 25.9997 6 28.914 9.57143 28.914H22.3429C25.9429 28.914 28.8286 25.9997 28.8286 22.4283V9.62829C28.8 6.02829 25.8857 3.14258 22.3429 3.14258ZM26 22.3997C26 24.4283 24.3429 26.0569 22.3429 26.0569H9.57143C7.54286 26.0569 5.91429 24.3997 5.91429 22.3997V9.62829C5.91429 7.59972 7.57143 5.97115 9.57143 5.97115H22.3429C24.3714 5.97115 26 7.62829 26 9.62829V22.3997Z" fill="#111111"/>
</g>
<defs>
<clipPath id="clip0_24_187">
<rect width="32" height="32" fill="white"/>
</clipPath>
</defs>
</svg>
