<?xml version="1.0" encoding="utf-8"?>
<!-- Generator: Adobe Illustrator 24.3.0, SVG Export Plug-In . SVG Version: 6.00 Build 0)  -->
<svg version="1.1" id="Calque_1" xmlns="http://www.w3.org/2000/svg" xmlns:xlink="http://www.w3.org/1999/xlink" x="0px" y="0px"
	 viewBox="0 0 1920 1080" style="enable-background:new 0 0 1920 1080;" xml:space="preserve">
<style type="text/css">
	.st0{fill:#FFFFFF;}
</style>
<g>
	<g>
		<path class="st0" d="M1401.2,968.2c-294.4,0-588.8,0-883.2,0c0-285.3,0-570.7,0-856.2c294.4,0,588.8,0,883.2,0
			C1401.2,397.3,1401.2,682.8,1401.2,968.2z M1346.2,432.4c-51.9-129-188.4-241.3-365.8-235.1c-172.3,6-293.7,121.5-338.4,235.1
			c6.4,0,12.7-0.1,18.9,0.1c2.4,0.1,3.7-0.6,4.7-2.9c6.8-15.7,15-30.7,24.3-45.1c19.6-30.5,43.3-57.4,70.9-80.9
			c23.9-20.5,50.1-37.4,78.5-50.9c42.4-20.1,87.1-31.5,133.9-34.3c29.7-1.8,59.3,0.2,88.6,5.8c34.1,6.5,66.5,17.7,97.4,33.6
			c34.7,17.9,65.5,41,92.8,68.8c18.4,18.7,34.7,39,48.2,61.5c8.2,13.7,15.1,28.2,22.6,42.2c0.5,0.9,1.5,2.1,2.4,2.1
			C1332.1,432.4,1339,432.4,1346.2,432.4z M1333.5,751.7c-7,0-13.7,0.1-20.4-0.1c-2.2-0.1-3.1,0.8-4.1,2.6
			c-20.7,36.6-46.6,69-78.5,96.5c-24.9,21.5-52.1,39.5-81.8,53.6c-40.8,19.4-83.7,30.7-128.8,33.8c-31.2,2.2-62.1,0.4-92.8-5.3
			c-31.9-5.9-62.4-16.2-91.6-30.4c-26.6-13-51.3-29.1-73.9-48.2c-18.7-15.8-35.6-33.4-50.8-52.5c-12-15.1-22.7-31.2-32.2-48
			c-0.4-0.8-1.3-1.9-2-1.9c-7.3-0.1-14.7-0.1-22.2-0.1C707.1,858.9,830.8,960,994.4,959.8C1159.3,959.6,1281.9,857.1,1333.5,751.7z
			 M1160.4,745c24-0.5,44.1-0.6,64.2-1.4c21.8-0.9,43.4-3.5,64.2-10.7c19.4-6.7,36.3-17.1,49.2-33.3c13-16.5,20.5-34.6,17.1-56.1
			c-1-6-4-8.7-9.9-8.4c-5.3,0.2-9.2,4.3-9.3,9.7c-0.1,1.6,0,3.2-0.1,4.8c-1.5,21.9-10.8,39.5-28.2,53c-13,10.1-28,15.7-43.7,19.4
			c-17.2,4.1-34.7,5.5-52.2,6.8c-32.1,2.4-64.1,2.1-96.2,0.8c-44.3-1.9-88.4-5.9-132.4-10c-33.5-3.2-67-6.5-100.6-9.6
			c-34.6-3.2-69.4-5.3-104.2-6.1c-39.4-0.8-78.8,0.1-117.9,5c-26.3,3.3-52,9.1-76.3,19.7c-10.2,4.5-20,10-30,15
			c-2,1-2.5,2.7-1.5,4.5c0.9,1.8,2.6,2.1,4.4,1.4c1-0.4,2-0.9,3-1.4c27.5-13.8,56.9-21.8,87.2-25.8c20.6-2.7,41.4-4.1,62.1-5.1
			c40.8-2,81.6-0.8,122.3,2.1c29.9,2.2,59.8,4.8,89.6,7.5c25.2,2.3,50.3,5,75.5,7.4c26.5,2.5,52.9,5.2,79.5,6.8
			C1105.3,743,1134.8,743.9,1160.4,745z M1166,521.8c-2.2-1.2-3.9-2.3-5.7-3.1c-1.9-0.8-3.9-1.5-6-1.9c-19.6-3.7-40.6,8.7-48.4,28.2
			c-6.3,15.6-7.1,31.5-3.2,47.6c4.1,16.8,13.6,29.7,30.8,34.9c18.4,5.5,35.6,2.9,49.4-11.5c9.6-10,13.8-22.8,15.9-36.2
			c3-19.6,2.1-39.1-1.7-58.4c-3.1-15.9-8.7-30.6-19.5-43.1c-13.5-15.6-37.5-22.2-56.8-15.2c-7.3,2.6-13.5,6.6-18.4,12.9
			c0.9,1.2,1.7,2.3,2.5,3.4c0.4-0.1,0.7-0.1,0.8-0.2c0.7-0.5,1.4-1.1,2.1-1.6c4.9-3.7,10.4-5.9,16.6-6.2c11.1-0.5,19.3,4.9,26,13.1
			C1159.2,495.2,1163,508.1,1166,521.8z M860,544.6c-0.9,0-1.5,0-2,0c-12.4,0-24.8,0-37.2,0c-2,0-3.1-0.3-3.1-2.7
			c0.1-21.5,0.1-43,0-64.5c0-1.7,0.4-2.3,2.2-2.2c5.7,0.4,11.4,0.5,17,1c10.3,0.9,20.4,2.4,29.3,8.5c1.7,1.1,3.5,1.3,4.9-0.4
			c2.6-3.3,3.1-7.2,2-11.1c-0.9-3.3-4.3-3.8-7.1-4.1c-6.9-0.8-13.9-1.6-20.9-1.7c-19.7-0.3-39.3-1.2-59,1.5
			c-13,1.8-25.6,4.6-37.1,11c-13.6,7.6-22.4,18.5-21.9,35c0.5,15.7,14.7,25.6,29.6,20.6c8.8-3,13.4-11.6,10.7-20.2
			c-1.8-5.9-7.1-7.8-12.1-4.3c-1.4,1-2.8,1.9-4.3,2.7c-5.3,2.6-10.1,0-11.2-5.8c-0.8-4.6,0.1-8.8,2.7-12.5c4-5.9,9.8-9.5,16.2-12.4
			c7.2-3.2,14.7-5.5,23-6.2c0.1,1.2,0.2,2.2,0.2,3.1c0,20.5,0,41,0.1,61.5c0,2.5-0.7,3.3-3.2,3.2c-4.4-0.2-8.9-0.1-13.6-0.1
			c0,2.7,0.1,5,0,7.3c-0.1,1.7,0.5,2.3,2.2,2.2c3.6-0.1,7.2,0.2,10.8-0.1c3.1-0.2,3.9,0.8,3.8,3.8c-0.1,18.5-0.1,37-0.1,55.5
			c0,8.8,2.8,13.5,9,15.5c5.8,1.8,11.6,1.8,17.4,0c4.7-1.5,7.6-4.6,8.4-9.6c0.4-2.9,0.8-5.7,0.9-8.6c0.1-17.5,0-35,0-52.5
			c0-4.1,0-4.1,4-4.1c11.7,0,23.4,0,35.1,0c1,0,1.9,0,3.1,0C860,550.8,860,547.9,860,544.6z M992.4,499
			c-4.9-5.9-17.5-13.1-27.4-15.7c-20.2-5.3-40.4-4-60.6,0.3c-2.9,0.6-5.8,1.4-8.8,2.1c0-1.7,0-3.1,0-4.5c0.1-10.4-1.1-20.5-5-30.3
			c-0.6-1.6-1.5-2.2-3.3-2.2c-7.3,0-14.3-1.3-20.9-4.5c-5.3-2.6-9.8-6.1-12.4-11.6c-7.4-15.9,0.4-34.1,17.3-39.8
			c3.8-1.3,7.8-2,11.8-3.1c1.4,12.1,5.1,22.2,14.1,29.7c-7.5-10.8-8.8-22.8-6.6-35.2c2.7-15.1,10.1-27.3,23.4-35.3
			c11.5-7,24.3-8.2,37.4-6.9c8.5,0.8,16.5,3,23.7,7.7c12.1,7.9,18.2,19.6,20.4,33.5c0.7,4.3,0.7,8.7,1.1,13.1
			c1.2-0.1,2.3-0.2,3.4-0.2c7.2,0,14.4-0.4,21.5,0.3c7.3,0.7,14.2,3.4,19.6,8.8c8.7,8.9,9.3,19.7,6.7,31
			c-2.2,9.6-8.7,15.3-18.2,17.4c-4.8,1-9.7,1.3-14.5,1.8c-1.2,0.1-2.5-0.1-3.9-0.2c5.3-11.6,6-19.4,2.7-25.1
			c-4,18.3-15.2,30.4-33.2,36.8c8.1,1.1,15.4-0.7,22.4-4.4c-1.3,12.6-0.3,26.5,2.5,32.7c0.1-0.9,0.1-1.7,0.2-2.4
			c1.6-8.5,3.2-17,4.8-25.5c0.3-1.7,1.3-2.1,3-1.8c2.8,0.4,5.6,0.5,8.4,0.5c19.5-0.4,34.8-10.7,38.1-30.4
			c3.9-23.8-5.3-43.1-30.5-49.6c-6.9-1.8-14.1-2.4-21.4-3.6c-0.8-3.1-1.5-6.8-2.6-10.3c-6.2-20.1-18.8-33.8-39.2-39.7
			c-11.5-3.4-23.3-3.8-35.1-2c-21.2,3.3-37,14-44.7,34.7c-1.7,4.5-2.5,9.4-3.8,14.2c-1.6,0.2-3.3,0.5-4.9,0.7
			c-22.1,3.7-37.2,17-37.5,39.9c-0.2,14.4,5.5,25.3,17.9,32.7c6.3,3.8,13.2,5.7,20.4,6.6c2.3,0.3,3.2,1.1,3.7,3.4
			c2,9.3,2.3,18.6,1.1,28c-0.5,4.3-1.3,8.5-1.9,12.9C918.2,486.7,955.2,488.2,992.4,499z M874.1,573.3c0,10.7,1.8,19.9,5.6,28.3
			c14.6,32.2,56.8,38.8,80.1,12.5c5.3-5.9,8.9-12.8,11.1-20.4c4.1-14.1,4.4-28.4,0.4-42.6c-6.1-21.3-23.4-34.3-45.7-34.8
			c-21.3-0.4-38.2,10.5-46.5,30C875.3,555,874.1,564,874.1,573.3z M1087.2,568.8c-0.1-6.4-1.2-15.5-5-24
			c-7.6-16.9-20.7-26.3-39.1-28c-20-1.9-36.7,4.6-46.9,22.3c-12.5,21.8-12.7,44.8-0.9,66.8c16.8,31.4,61.9,32.8,81.6,3.1
			C1084.4,597.7,1087.2,585.1,1087.2,568.8z M1289.6,432.2c-47.4-99.3-163.9-193.3-319-182.8c-69.5,4.7-131.4,29.8-185.4,73.7
			c-36.8,29.9-65.6,66.3-87,109.2c2,0,3.5-0.1,5,0c2.1,0.2,3.2-0.5,4.1-2.4c20.8-40.8,49.7-75.1,85.1-103.8
			c24.8-20.2,52.4-35.8,82.1-47.8c32.1-12.9,65.4-20.1,99.9-22.3c20.5-1.3,40.9-0.5,61.3,2.1c29.1,3.7,57.2,11.3,84.2,22.7
			c36.5,15.5,69.2,37,97.8,64.6c24.8,23.9,45.4,51,61.7,81.4C1282.5,432.8,1282.5,432.8,1289.6,432.2z M1274.3,752
			c-5.5-1.6-8.6,0.7-11.5,5.2c-13,20.2-28.5,38.3-45.8,54.9c-20.1,19.3-42.4,35.6-66.7,49.1c-25.5,14.1-52.4,24.6-80.8,31.3
			c-32.6,7.7-65.6,10.4-99.1,7.9c-22.9-1.7-45.4-5.6-67.4-12.1c-41.8-12.4-79.7-32.3-113.4-60c-18.3-15-34.9-31.7-49.4-50.4
			c-6.1-7.8-11.5-16.1-17.3-24.1c-0.7-0.9-1.8-2-2.8-2.2c-2-0.4-4.1-0.1-6.3-0.1c7.3,20,54.5,71,87.7,94.7
			c53.2,38,112.4,58.9,177.7,61.7C1120.6,914.1,1225.8,833.4,1274.3,752z M1016.7,822.7c-0.1-1.4,0-2.2-0.2-2.9
			c-1.1-6.2-2.1-12.4-3.3-18.6c-0.5-2.8-0.4-4.9,2.1-6.8c2.1-1.6,3.9-3.7,5.9-5.6c3.2-3.2,6.5-6.4,10.1-9.9
			c-7.9-1.2-15.1-2.4-22.3-3.2c-2.6-0.3-4-1.3-5.1-3.7c-3.1-6.6-6.5-13.1-10-20.1c-0.7,1.3-1.2,2.1-1.6,3
			c-2.9,5.8-5.9,11.6-8.6,17.5c-1,2.1-2.2,2.9-4.4,3.2c-7.4,0.9-14.7,2.1-21.9,3.1c3.7,3.9,7.2,7.9,11,11.6c6.9,6.6,7,6.5,5.3,16
			c-0.9,5.3-1.8,10.6-2.7,16.3c1.2-0.6,2.1-0.9,2.8-1.3c5.9-3.1,11.9-6.1,17.7-9.4c1.8-1,3.2-0.9,5,0
			C1002.9,815.6,1009.5,819,1016.7,822.7z M889.2,807.9c5.1,3.7,9.6,7.1,14.3,10.3c1.6,1.1,2.2,2.3,2.1,4.2c-0.1,5.6,0,11.3,0,17.2
			c2.1-1.5,4.2-3.1,6.4-4.6c3.3-2.2,6.4-5.8,9.9-6.3c3.5-0.5,7.5,2.2,11.3,3.4c2.3,0.8,4.6,1.6,7.4,2.6c-1.8-5.7-3.2-10.7-5.1-15.5
			c-1.1-2.9-0.6-4.8,1.3-7c3.3-4,6.3-8.1,9.8-12.7c-5.9,0-11.2-0.1-16.4,0.1c-2.7,0.1-4.3-0.6-5.8-3c-2.8-4.5-6-8.8-9.3-13.5
			c-0.4,1.1-0.7,1.8-1,2.6c-1.6,4.8-3,9.7-4.8,14.5c-0.4,1.1-1.6,2.2-2.7,2.6C900.9,804.4,895.4,806,889.2,807.9z M1082.2,839.6
			c0-6,0.1-11.6-0.1-17.1c0-1.9,0.3-3.1,2-4.2c4.7-3.2,9.3-6.7,14.4-10.4c-6.1-1.8-11.6-3.6-17.1-5.1c-1.6-0.5-2.4-1.3-2.9-2.9
			c-1.7-5.5-3.6-10.9-5.5-17c-3.5,5.1-6.9,9.7-9.9,14.4c-1.1,1.7-2.4,2.3-4.4,2.2c-5.5-0.1-11.1,0-17.3,0c2.5,3.3,4.2,6.3,6.6,8.5
			c5.3,5,5.9,10.4,2.6,16.7c-1.5,2.9-2.1,6.3-3.3,9.9c5.9-2.1,11.2-3.8,16.4-5.8c1.9-0.7,3.3-0.5,4.9,0.7
			C1073,833,1077.5,836.2,1082.2,839.6z M1193.8,650.5c-0.1,0.3-0.2,0.5-0.2,0.8c-0.5,0-1,0-1.5,0c-9.8,0.9-18.2,3.8-22.9,13.6
			c-1,2.1-3.8,3.8-6.1,4.8c-4.8,2.2-9.9,3.5-14.7,5.7c-10.3,4.6-20.5,9.6-28.5,17.8c-2.5,2.5-4.3,5.9-5.8,9.2
			c-0.5,1.1,0.4,3.7,1.5,4.7c1.5,1.4,3.3,0.2,4.7-1.2c11.7-10.7,24.7-19.6,38.7-26.9c6.9-3.6,13.4-5.6,21.8-3
			c9.7,3.1,19.4,0.4,27-7.3c4.8-4.8,3.9-11.4-2.2-14.5C1202,652.5,1197.8,651.8,1193.8,650.5z M1181.4,711.4
			c0.1,0.3,0.2,0.6,0.2,0.8c2.1-0.2,4.4-0.2,6.4-0.8c7.4-2,14-5.7,20.1-10.4c1.4-1.1,2.8-2.7,3.4-4.4c1.6-4.5,4.9-7.1,9.2-8.7
			c2.4-0.9,4.8-2,7.2-3c14.4-5.6,29.3-9,44.7-10.8c1.4-0.2,3.2-1.5,3.7-2.7c0.8-2-0.4-4-2.5-4.4c-3.9-0.8-7.9-1.7-11.7-1.5
			c-16.2,0.9-30.6,7.1-43.9,15.9c-4.1,2.7-8,3-12.5,2.2c-2.3-0.4-5.3-0.6-7.2,0.4c-6.8,3.6-13.5,7.7-20,11.9c-1.4,0.9-2,3.1-2.9,4.7
			c0.3,0.2,0.5,0.4,0.8,0.5c6.1-2.9,11.6-7.3,18.5-8.5c-0.9,1.4-2,2.6-3.3,3.4c-4.2,2.6-8.4,5-12.6,7.4c-1.6,0.9-3.2,1.9-2,3.9
			c1.3,2.2,3,1.2,4.6,0.2c1.8-1.1,3.5-2.3,5.4-3.2c3.7-1.9,7.4-3.6,11.1-5.4c0.3,0.4,0.5,0.9,0.8,1.3
			C1192.9,704,1187.1,707.7,1181.4,711.4z M702.4,680.9c-24.1,0.7-47.8,4.2-71,10.3c-17.8,4.7-35,10.9-51.9,18.1
			c-0.7,0.3-1.2,1.3-1.8,1.9c1,0.2,2,0.6,2.9,0.4c2.6-0.7,5.1-1.8,7.6-2.6c34-11.2,69-16.6,104.6-18.6c13.5-0.7,27-0.9,40.4-1.3
			c2-0.1,3.7-0.4,3.9-2.7c0.2-2.4-1.7-2.6-3.4-2.7C723.3,682.7,712.9,681.8,702.4,680.9z M1306.8,740.5c0.1,0.3,0.1,0.7,0.2,1
			c1.3-0.1,2.6-0.1,3.8-0.3c10-1.8,19.4-5.1,28.2-10.3c20.5-12,34-29.5,41.6-51.8c1.5-4.4,2.2-8.9,0.1-13.4
			c-2.3-4.8-7.4-5.8-10.5-1.6c-2,2.7-3.5,6.1-4.2,9.4c-1.5,6.9-2.5,13.9-5.5,20.4c-10.3,22.4-27.1,37.6-50.6,45.3
			C1308.8,739.6,1307.8,740.1,1306.8,740.5z M770.9,673.3c0.2-0.4,0.2-0.5,0.3-0.6c0.3-0.2,0.6-0.5,1-0.7c4.7-3.1,5.3-7.7,4.5-12.7
			c-0.8-4.8-4-7.8-8.7-8.2c-5.6-0.5-11.3-0.1-17-0.1c0,10.5,0,20.9,0,31.3c2.1,0,3.9,0,6,0c0-2.8,0-5.3,0-7.8c4.6-1,8.4-0.7,10.4,4
			c2,4.7,5.8,4.5,10.3,3.7C775.3,679.2,773.1,676.3,770.9,673.3z M1024.7,658.7c-4.4-0.5-8.6,0.5-12.9-0.5
			c-4.8-1.1-9.2,2.3-11.2,6.8c-2.2,4.8-1.3,11,2.3,14.6c3.8,3.8,8.3,4.5,13.2,2.8c0.8-0.3,1.7-0.7,2.5-0.6c2,0.2,3.9,0.8,6.1,1.2
			C1024.7,674.4,1024.7,666.6,1024.7,658.7z M916.1,683.1c0-8.6,0-16.4,0-24.5c-4.4,0.1-8.6,0.4-12.9-0.4c-4.9-0.8-8.8,1.9-11.1,6.5
			c-2.3,4.7-1.5,10.9,1.9,14.6c3.7,3.9,8.2,4.7,13.2,3.2c0.9-0.3,1.9-0.8,2.8-0.7C911.9,682,913.8,682.5,916.1,683.1z M814.7,672.1
			c1-7-2.4-12.3-8.5-13.8c-6.3-1.5-12.6,1.9-14.7,7.9c-2.2,6.3,0.7,13.3,6.6,15.9c5.7,2.5,13.2,0.6,15.9-4.2c-1.2-1-2.4-2-3.5-3
			c-6,4.6-11.6,3.5-13.3-2.8C803.1,672.1,808.9,672.1,814.7,672.1z M954.8,683c0-8.5,0-16.4,0-24.2c-2,0-3.8,0-5.4,0
			c-0.2,0.3-0.3,0.5-0.3,0.7c0,4.7-0.2,9.4,0,14.1c0,2-0.8,2.9-2.5,3.5c-5.3,1.9-8.6-0.4-8.6-6.1c0-4.1,0-8.1,0-12.1
			c-2.3,0-4.1,0-6,0c0,5.2-0.2,10.2,0,15.2c0.3,6,3.6,9.1,9.6,9.1c1.8,0,3.7-0.6,5.5-1c0.6-0.1,1.1-0.4,1.6-0.4
			C950.7,682.1,952.6,682.5,954.8,683z M1046.6,682.5c0-4.9,0.1-9.6-0.1-14.3c-0.1-2.7,1.1-3.8,3.4-4.3c4.7-1.1,7.4,0.8,7.5,5.6
			c0.1,4.3,0,8.5,0,12.8c2.2,0,4.1,0,6,0c0-5.4,0.2-10.6-0.1-15.7c-0.3-5.6-3.5-8.5-9.1-8.6c-1.9,0-3.9,0.6-5.8,1
			c-0.6,0.1-1.2,0.2-1.8,0.1c-2-0.2-3.9-0.5-5.9-0.7c0,8.4,0,16.2,0,24.1C1042.7,682.5,1044.4,682.5,1046.6,682.5z M847.4,660
			c-4.6-1.9-9.2-2.9-13.8-1.3c-2.9,1-4.6,3.1-4.8,6.2c-0.2,3.2,1.3,5.4,4.2,6.5c2.1,0.8,4.4,1.2,6.5,2.1c1.3,0.5,2.3,1.7,3.4,2.6
			c-1.4,0.7-2.8,1.5-4.3,2c-0.6,0.2-1.4-0.1-2.1-0.2c-2-0.5-4-1-6.1-1.5c-0.7,1.4-1.4,2.7-2.2,4.3c5.4,2.4,10.6,3.5,16,1.1
			c1.6-0.7,3-2.4,3.8-3.9c1.6-3.6,0.1-7.1-3.6-8.6c-2.6-1-5.4-1.5-8-2.4c-0.9-0.3-1.5-1.4-2.2-2.1c0.8-0.6,1.5-1.4,2.5-1.8
			c0.8-0.3,1.8-0.2,2.6-0.1c2,0.3,4.1,0.8,6.2,1.2C846.1,662.8,846.7,661.5,847.4,660z M1080.4,664c0.2,0.4,0.3,0.6,0.3,0.8
			c0,3.4,0,6.8,0.1,10.2c0,5.8,2.9,8.5,8.6,8.2c4.4-0.2,4.9-1,3.8-5.4c-0.9,0-1.7,0-2.6,0c-2.1,0.1-3.3-1-3.4-3c-0.1-3.6,0-7.1,0-11
			c2.2,0,4.3,0,6.4,0c0-1.9,0-3.5,0-5.4c-2.3,0-4.4,0-6.8,0c0-3.5,0-6.7,0-9.9c-2.1,0-3.9,0-6,0c0,3.4,0,6.6,0,9.8
			c-1.3,0.2-2.3,0.3-3.2,0.4c0,1.7,0,3.3,0,4.9C1078.6,663.8,1079.4,663.9,1080.4,664z M864.7,664.1c0,3.9,0,7.5,0,11
			c0.1,5.6,2.9,8.3,8.4,8.1c4.5-0.2,4.9-0.6,4.1-5.4c-1,0-2.2,0.3-3.2-0.1c-1.1-0.4-2.7-1.4-2.7-2.2c-0.3-3.8-0.1-7.6-0.1-11.8
			c2.2,0,4.2,0,6.3,0c0-1.8,0-3.4,0-5.3c-2.3,0-4.4,0-6.8,0c0-3.5,0-6.7,0-9.8c-2.1,0-3.9,0-6,0c0,3.4,0,6.5,0,9.7
			c-1.3,0.2-2.3,0.4-3.2,0.5c0,1.8,0,3.3,0,4.8C862.6,663.8,863.4,663.9,864.7,664.1z M986.1,657.2c-3.5,1.3-6.3,2.4-9.1,3.4
			c-0.1-0.4-0.2-1.1-0.3-1.8c-2,0-3.8,0-5.7,0c0,8,0,15.7,0,23.6c2,0,3.8,0,5.9,0c0-3.8-0.1-7.3,0-10.9c0.1-4.8,2.5-6.9,7.2-6.8
			c0.6,0,1.2,0.1,1.8,0.1c0.1-0.5,0.2-0.9,0.2-1.3C986.1,661.8,986.1,660.2,986.1,657.2z M1229.1,659.3c-0.1-2.9-2.4-5-5.3-4.9
			c-2.6,0.1-4.9,2.6-4.8,5.2c0.1,2.7,2.7,5.1,5.4,5C1227,664.4,1229.1,662.1,1229.1,659.3z M1168,683.7c-2.2,0.1-3.6,1.1-3.8,3.4
			c-0.2,2.1,1.4,3.9,3.5,4c2.2,0.1,3.8-1.5,3.8-3.7C1171.4,685,1170.1,683.9,1168,683.7z M1147.8,652.5c0.8,0.6,1.8,2.1,3.1,2.4
			c2,0.4,3.4-0.9,3.6-3.1c0.1-2-1.1-3.2-3-3.4C1149.4,648.3,1148.1,649.4,1147.8,652.5z M1208.8,641.6c1.1-1.7,2.2-2.8,2.1-3.6
			c-0.1-0.9-1.6-2.2-2.4-2.1c-0.8,0-2.1,1.5-2.2,2.4C1206.3,639.1,1207.5,640,1208.8,641.6z M1155.2,703.3c-1.1-0.8-1.8-1.7-2.4-1.7
			c-0.6,0-1.4,0.9-1.6,1.6c-0.1,0.3,0.9,1.4,1.4,1.4C1153.4,704.7,1154.1,704,1155.2,703.3z"/>
		<path d="M1346.2,432.4c-7.2,0-14.1,0.1-21-0.1c-0.8,0-1.9-1.2-2.4-2.1c-7.6-14.1-14.4-28.6-22.6-42.2
			c-13.5-22.4-29.8-42.8-48.2-61.5c-27.4-27.8-58.1-50.9-92.8-68.8c-30.9-15.9-63.3-27.1-97.4-33.6c-29.3-5.6-58.9-7.6-88.6-5.8
			c-46.8,2.8-91.5,14.1-133.9,34.3c-28.4,13.5-54.6,30.4-78.5,50.9c-27.5,23.6-51.3,50.5-70.9,80.9c-9.3,14.4-17.5,29.4-24.3,45.1
			c-1,2.3-2.3,3-4.7,2.9c-6.3-0.2-12.6-0.1-18.9-0.1c44.7-113.6,166.2-229.1,338.4-235.1C1157.8,191.1,1294.3,303.4,1346.2,432.4z"
			/>
		<path d="M1333.5,751.7c-51.6,105.4-174.2,207.9-339.1,208.1C830.8,960,707.1,858.9,654.5,751.7c7.5,0,14.9-0.1,22.2,0.1
			c0.7,0,1.5,1.1,2,1.9c9.5,16.9,20.2,32.9,32.2,48c15.2,19.2,32.1,36.7,50.8,52.5c22.6,19.2,47.3,35.3,73.9,48.2
			c29.1,14.2,59.6,24.5,91.6,30.4c30.7,5.6,61.7,7.5,92.8,5.3c45-3.2,88-14.5,128.8-33.8c29.7-14.1,56.9-32,81.8-53.6
			c31.8-27.6,57.8-59.9,78.5-96.5c1-1.8,2-2.6,4.1-2.6C1319.8,751.8,1326.5,751.7,1333.5,751.7z"/>
		<path d="M1160.4,745c-25.6-1.1-55.1-2-84.5-3.8c-26.5-1.7-53-4.4-79.5-6.8c-25.2-2.3-50.3-5.1-75.5-7.4
			c-29.9-2.7-59.7-5.4-89.6-7.5c-40.7-2.9-81.5-4.1-122.3-2.1c-20.7,1-41.5,2.4-62.1,5.1c-30.3,4-59.7,12-87.2,25.8
			c-1,0.5-2,1-3,1.4c-1.8,0.7-3.5,0.4-4.4-1.4c-0.9-1.9-0.5-3.5,1.5-4.5c10-5,19.8-10.5,30-15c24.4-10.6,50.1-16.4,76.3-19.7
			c39.2-5,78.5-5.9,117.9-5c34.8,0.7,69.5,2.8,104.2,6.1c33.5,3.1,67,6.4,100.6,9.6c44.1,4.2,88.2,8.2,132.4,10
			c32.1,1.3,64.2,1.6,96.2-0.8c17.5-1.3,35.1-2.8,52.2-6.8c15.8-3.7,30.7-9.3,43.7-19.4c17.3-13.5,26.7-31.1,28.2-53
			c0.1-1.6,0.1-3.2,0.1-4.8c0.2-5.5,4.1-9.5,9.3-9.7c5.9-0.3,9,2.3,9.9,8.4c3.4,21.5-4.1,39.7-17.1,56.1
			c-12.9,16.3-29.8,26.7-49.2,33.3c-20.8,7.2-42.4,9.8-64.2,10.7C1204.5,744.4,1184.4,744.5,1160.4,745z"/>
		<path d="M1166,521.8c-3.1-13.7-6.8-26.6-15.6-37.4c-6.7-8.2-14.9-13.6-26-13.1c-6.2,0.3-11.7,2.4-16.6,6.2
			c-0.7,0.5-1.4,1.1-2.1,1.6c-0.2,0.1-0.4,0.1-0.8,0.2c-0.8-1-1.6-2.1-2.5-3.4c4.8-6.3,11.1-10.3,18.4-12.9
			c19.4-6.9,43.3-0.4,56.8,15.2c10.8,12.5,16.4,27.2,19.5,43.1c3.8,19.4,4.7,38.9,1.7,58.4c-2.1,13.4-6.2,26.2-15.9,36.2
			c-13.9,14.4-31,17-49.4,11.5c-17.2-5.2-26.7-18.1-30.8-34.9c-3.9-16.1-3.1-32,3.2-47.6c7.8-19.5,28.8-31.9,48.4-28.2
			c2,0.4,4,1.1,6,1.9C1162.2,519.5,1163.9,520.6,1166,521.8z M1167.1,568.5c0-4.5,0.1-9,0-13.5c-0.1-2.5-0.3-5-0.6-7.5
			c-0.6-6.1-1.4-11.9-6.8-16.2c-6.2-4.9-14.5-4.2-18.7,2.6c-1.8,2.9-3.1,6.3-3.9,9.6c-3.7,16.9-3.4,34-1.4,51
			c0.7,5.8,2.5,11.5,4.5,17c1.4,3.9,4.2,7.1,8.9,7.5c4.9,0.4,8.6-1.9,10.8-6.1c1.6-3.1,3.1-6.5,4.1-9.9
			C1167.3,591.7,1167.3,580.1,1167.1,568.5z"/>
		<path d="M860,544.6c0,3.3,0,6.2,0,9.4c-1.2,0-2.2,0-3.1,0c-11.7,0-23.4,0-35.1,0c-4,0-4,0-4,4.1c0,17.5,0,35,0,52.5
			c0,2.9-0.4,5.8-0.9,8.6c-0.8,4.9-3.7,8.1-8.4,9.6c-5.8,1.8-11.6,1.8-17.4,0c-6.3-2-9-6.8-9-15.5c0-18.5-0.1-37,0.1-55.5
			c0-3-0.8-4.1-3.8-3.8c-3.6,0.3-7.2,0-10.8,0.1c-1.7,0.1-2.3-0.5-2.2-2.2c0.1-2.3,0-4.6,0-7.3c4.7,0,9.1-0.1,13.6,0.1
			c2.5,0.1,3.2-0.8,3.2-3.2c-0.1-20.5,0-41-0.1-61.5c0-1-0.1-1.9-0.2-3.1c-8.3,0.6-15.7,2.9-23,6.2c-6.4,2.9-12.2,6.5-16.2,12.4
			c-2.6,3.8-3.5,8-2.7,12.5c1.1,5.8,5.9,8.4,11.2,5.8c1.5-0.7,2.9-1.7,4.3-2.7c5-3.5,10.3-1.6,12.1,4.3c2.7,8.7-1.9,17.3-10.7,20.2
			c-14.9,5-29.1-4.9-29.6-20.6c-0.5-16.6,8.2-27.4,21.9-35c11.5-6.4,24.1-9.2,37.1-11c19.6-2.7,39.3-1.8,59-1.5
			c7,0.1,13.9,0.9,20.9,1.7c2.8,0.3,6.1,0.8,7.1,4.1c1.1,3.9,0.6,7.8-2,11.1c-1.3,1.7-3.2,1.5-4.9,0.4c-8.8-6.1-19-7.6-29.3-8.5
			c-5.7-0.5-11.4-0.6-17-1c-1.8-0.1-2.2,0.5-2.2,2.2c0,21.5,0.1,43,0,64.5c0,2.4,1,2.7,3.1,2.7c12.4-0.1,24.8,0,37.2,0
			C858.6,544.6,859.2,544.6,860,544.6z"/>
		<path d="M992.4,499c-37.1-10.8-74.2-12.3-110.8,4.5c0.6-4.3,1.4-8.6,1.9-12.9c1.2-9.4,0.9-18.7-1.1-28c-0.5-2.3-1.4-3.1-3.7-3.4
			c-7.2-0.9-14.1-2.8-20.4-6.6c-12.4-7.4-18-18.3-17.9-32.7c0.3-22.9,15.4-36.2,37.5-39.9c1.7-0.3,3.3-0.5,4.9-0.7
			c1.3-4.8,2.1-9.7,3.8-14.2c7.7-20.7,23.5-31.4,44.7-34.7c11.7-1.8,23.5-1.4,35.1,2c20.4,6,33.1,19.7,39.2,39.7
			c1.1,3.5,1.8,7.1,2.6,10.3c7.2,1.2,14.4,1.8,21.4,3.6c25.2,6.5,34.5,25.7,30.5,49.6c-3.3,19.7-18.6,30-38.1,30.4
			c-2.8,0.1-5.6-0.1-8.4-0.5c-1.7-0.2-2.7,0.2-3,1.8c-1.6,8.5-3.2,17-4.8,25.5c-0.1,0.8-0.1,1.6-0.2,2.4c-2.7-6.2-3.8-20-2.5-32.7
			c-7.1,3.6-14.4,5.5-22.4,4.4c18-6.3,29.2-18.5,33.2-36.8c3.2,5.7,2.5,13.5-2.7,25.1c1.4,0.1,2.7,0.3,3.9,0.2
			c4.9-0.5,9.8-0.8,14.5-1.8c9.5-2.1,16-7.8,18.2-17.4c2.6-11.3,2-22.1-6.7-31c-5.3-5.4-12.2-8.1-19.6-8.8
			c-7.1-0.7-14.3-0.3-21.5-0.3c-1.1,0-2.2,0.1-3.4,0.2c-0.4-4.5-0.4-8.8-1.1-13.1c-2.2-13.9-8.3-25.6-20.4-33.5
			c-7.2-4.7-15.3-6.9-23.7-7.7c-13.1-1.2-25.8,0-37.4,6.9c-13.3,8-20.8,20.2-23.4,35.3c-2.2,12.5-0.9,24.4,6.6,35.2
			c-9-7.5-12.7-17.7-14.1-29.7c-4.1,1-8,1.8-11.8,3.1c-16.9,5.7-24.7,23.9-17.3,39.8c2.6,5.6,7.1,9.1,12.4,11.6
			c6.6,3.2,13.6,4.5,20.9,4.5c1.8,0,2.6,0.6,3.3,2.2c3.9,9.7,5.1,19.9,5,30.3c0,1.4,0,2.8,0,4.5c3-0.7,5.9-1.5,8.8-2.1
			c20.2-4.3,40.3-5.5,60.6-0.3C974.9,485.9,987.5,493.1,992.4,499z"/>
		<path d="M874.1,573.3c0-9.3,1.3-18.3,5-26.9c8.3-19.5,25.2-30.4,46.5-30c22.3,0.5,39.6,13.4,45.7,34.8c4.1,14.2,3.8,28.5-0.4,42.6
			c-2.2,7.6-5.8,14.5-11.1,20.4c-23.3,26.3-65.5,19.6-80.1-12.5C875.8,593.2,874,584,874.1,573.3z M941.2,573.6
			c-0.9-10.1-1.4-19.4-2.8-28.5c-0.7-4.5-2.6-9.1-5.1-12.9c-4.5-6.9-14.4-6.7-18.6,0.3c-2.6,4.4-4.5,9.4-5.3,14.4
			c-2.7,17.5-2.5,35-0.2,52.5c0.7,5.5,2.2,10.8,5.6,15.3c4.8,6.4,14,6.4,18.3-0.4c2.2-3.4,4-7.3,4.6-11.2
			C939.4,593.1,940.2,583,941.2,573.6z"/>
		<path d="M1087.2,568.8c0,16.3-2.8,28.9-10.3,40.2c-19.7,29.7-64.8,28.3-81.6-3.1c-11.8-22-11.6-45,0.9-66.8
			c10.2-17.8,26.9-24.2,46.9-22.3c18.4,1.7,31.5,11,39.1,28C1086,553.3,1087.1,562.4,1087.2,568.8z M1020.1,572.2
			c0.9,10.2,1.2,19.5,2.7,28.6c0.8,4.9,2.8,9.9,5.5,14c4.2,6.5,13.8,6.2,17.9-0.4c2.3-3.7,4.2-8.1,5-12.4
			c3.5-18.8,3.5-37.8,0.4-56.6c-0.8-4.7-2.8-9.5-5.4-13.4c-4.3-6.6-13.9-6.4-18.2,0.2c-2.2,3.3-4.1,7.3-4.7,11.2
			C1021.8,553.1,1021.1,563.1,1020.1,572.2z"/>
		<path d="M1289.6,432.2c-7.1,0.6-7.1,0.6-10.2-5.3c-16.2-30.4-36.9-57.5-61.7-81.4c-28.6-27.6-61.2-49-97.8-64.6
			c-27-11.5-55-19-84.2-22.7c-20.4-2.6-40.9-3.4-61.3-2.1c-34.4,2.2-67.8,9.4-99.9,22.3c-29.7,11.9-57.3,27.6-82.1,47.8
			c-35.4,28.8-64.3,63-85.1,103.8c-1,1.9-2.1,2.7-4.1,2.4c-1.5-0.2-2.9,0-5,0c21.4-42.9,50.2-79.3,87-109.2
			c54-44,115.9-69,185.4-73.7C1125.7,238.9,1242.2,332.9,1289.6,432.2z"/>
		<path d="M1274.3,752c-48.5,81.4-153.7,162.1-295.2,156.1c-65.3-2.8-124.5-23.7-177.7-61.7c-33.2-23.7-80.4-74.7-87.7-94.7
			c2.2,0,4.3-0.2,6.3,0.1c1,0.2,2.1,1.3,2.8,2.2c5.8,8,11.3,16.3,17.3,24.1c14.5,18.7,31.2,35.4,49.4,50.4
			c33.7,27.7,71.6,47.6,113.4,60c22,6.5,44.5,10.4,67.4,12.1c33.4,2.4,66.5-0.2,99.1-7.9c28.4-6.7,55.3-17.2,80.8-31.3
			c24.3-13.5,46.6-29.8,66.7-49.1c17.3-16.6,32.8-34.7,45.8-54.9C1265.8,752.7,1268.9,750.4,1274.3,752z"/>
		<path d="M1016.7,822.7c-7.1-3.7-13.8-7.1-20.3-10.7c-1.8-1-3.1-1-5,0c-5.9,3.2-11.8,6.3-17.7,9.4c-0.8,0.4-1.6,0.7-2.8,1.3
			c1-5.7,1.8-11,2.7-16.3c1.7-9.5,1.7-9.4-5.3-16c-3.8-3.6-7.3-7.6-11-11.6c7.2-1.1,14.6-2.2,21.9-3.1c2.2-0.3,3.5-1.1,4.4-3.2
			c2.7-5.9,5.7-11.7,8.6-17.5c0.4-0.9,0.9-1.7,1.6-3c3.5,7,6.9,13.5,10,20.1c1.1,2.4,2.5,3.4,5.1,3.7c7.2,0.8,14.4,2,22.3,3.2
			c-3.6,3.5-6.8,6.7-10.1,9.9c-1.9,1.9-3.7,3.9-5.9,5.6c-2.5,1.9-2.6,4.1-2.1,6.8c1.2,6.2,2.2,12.4,3.3,18.6
			C1016.6,820.5,1016.6,821.3,1016.7,822.7z"/>
		<path d="M889.2,807.9c6.2-1.9,11.7-3.4,17.2-5.3c1.1-0.4,2.3-1.5,2.7-2.6c1.7-4.8,3.2-9.6,4.8-14.5c0.2-0.7,0.6-1.4,1-2.6
			c3.3,4.7,6.5,9,9.3,13.5c1.5,2.4,3.1,3.1,5.8,3c5.2-0.2,10.5-0.1,16.4-0.1c-3.5,4.6-6.5,8.8-9.8,12.7c-1.8,2.2-2.4,4.1-1.3,7
			c1.9,4.8,3.3,9.8,5.1,15.5c-2.8-1-5.1-1.8-7.4-2.6c-3.8-1.3-7.7-3.9-11.3-3.4c-3.5,0.5-6.6,4-9.9,6.3c-2.2,1.5-4.3,3.1-6.4,4.6
			c0-5.9-0.1-11.5,0-17.2c0-1.9-0.5-3.1-2.1-4.2C898.8,814.9,894.3,811.5,889.2,807.9z"/>
		<path d="M1082.2,839.6c-4.6-3.4-9.2-6.6-13.6-9.9c-1.6-1.2-3-1.5-4.9-0.7c-5.2,2-10.5,3.7-16.4,5.8c1.2-3.6,1.8-7,3.3-9.9
			c3.2-6.4,2.7-11.7-2.6-16.7c-2.4-2.3-4.1-5.3-6.6-8.5c6.2,0,11.7-0.1,17.3,0c2,0,3.3-0.5,4.4-2.2c3.1-4.7,6.4-9.3,9.9-14.4
			c2,6,3.8,11.5,5.5,17c0.5,1.6,1.3,2.4,2.9,2.9c5.5,1.5,11,3.3,17.1,5.1c-5.1,3.7-9.6,7.2-14.4,10.4c-1.6,1.1-2,2.3-2,4.2
			C1082.3,828,1082.2,833.6,1082.2,839.6z"/>
		<path d="M1193.8,650.5c3.9,1.2,8.1,1.9,11.8,3.8c6.1,3,6.9,9.6,2.2,14.5c-7.5,7.6-17.2,10.3-27,7.3c-8.4-2.6-14.9-0.6-21.8,3
			c-14,7.3-27,16.2-38.7,26.9c-1.4,1.3-3.2,2.6-4.7,1.2c-1.1-1-2.1-3.5-1.5-4.7c1.5-3.3,3.3-6.6,5.8-9.2c8-8.2,18.2-13.2,28.5-17.8
			c4.8-2.1,9.9-3.5,14.7-5.7c2.3-1.1,5.1-2.7,6.1-4.8c4.7-9.8,13.1-12.7,22.9-13.6c0.5,0,1,0,1.5,0
			C1193.7,651.1,1193.7,650.8,1193.8,650.5z M1178.3,668.9c6.9,5.2,22.9,1.4,25.5-7.7C1196.4,668.1,1188,670.2,1178.3,668.9z"/>
		<path d="M1181.4,711.4c5.8-3.7,11.6-7.4,17.3-11c-0.3-0.4-0.5-0.9-0.8-1.3c-3.7,1.8-7.4,3.5-11.1,5.4c-1.9,1-3.6,2.1-5.4,3.2
			c-1.6,1-3.4,2-4.6-0.2c-1.2-2,0.5-3,2-3.9c4.2-2.4,8.5-4.9,12.6-7.4c1.3-0.8,2.4-2,3.3-3.4c-7,1.1-12.4,5.6-18.5,8.5
			c-0.3-0.2-0.5-0.4-0.8-0.5c1-1.6,1.5-3.8,2.9-4.7c6.5-4.2,13.1-8.3,20-11.9c2-1,4.9-0.9,7.2-0.4c4.5,0.8,8.4,0.5,12.5-2.2
			c13.3-8.8,27.8-15,43.9-15.9c3.9-0.2,7.9,0.7,11.7,1.5c2.1,0.4,3.3,2.4,2.5,4.4c-0.5,1.2-2.3,2.5-3.7,2.7
			c-15.3,1.8-30.3,5.2-44.7,10.8c-2.4,0.9-4.7,2.1-7.2,3c-4.3,1.6-7.6,4.2-9.2,8.7c-0.6,1.7-2,3.3-3.4,4.4
			c-6.1,4.6-12.7,8.3-20.1,10.4c-2.1,0.6-4.3,0.5-6.4,0.8C1181.5,711.9,1181.4,711.6,1181.4,711.4z"/>
		<path d="M702.4,680.9c10.4,0.9,20.9,1.8,31.3,2.7c1.8,0.2,3.6,0.3,3.4,2.7c-0.2,2.3-1.9,2.7-3.9,2.7c-13.5,0.4-27,0.6-40.4,1.3
			c-35.6,2-70.6,7.4-104.6,18.6c-2.6,0.8-5,1.9-7.6,2.6c-0.9,0.2-1.9-0.2-2.9-0.4c0.6-0.7,1.1-1.6,1.8-1.9
			c16.9-7.2,34.1-13.5,51.9-18.1C654.7,685,678.3,681.5,702.4,680.9z"/>
		<path d="M1306.8,740.5c1-0.4,2-0.9,3-1.3c23.5-7.7,40.3-22.8,50.6-45.3c3-6.5,4.1-13.5,5.5-20.4c0.7-3.3,2.1-6.7,4.2-9.4
			c3.2-4.2,8.2-3.2,10.5,1.6c2.2,4.5,1.4,9-0.1,13.4c-7.6,22.3-21.1,39.8-41.6,51.8c-8.8,5.1-18.2,8.4-28.2,10.3
			c-1.2,0.2-2.5,0.2-3.8,0.3C1306.9,741.2,1306.9,740.8,1306.8,740.5z"/>
		<path d="M770.9,673.3c2.2,2.9,4.4,5.9,6.7,9c-4.4,0.8-8.3,0.9-10.3-3.7c-2-4.7-5.8-5.1-10.4-4c0,2.5,0,5.1,0,7.8c-2.1,0-3.9,0-6,0
			c0-10.4,0-20.8,0-31.3c5.7,0,11.4-0.3,17,0.1c4.7,0.4,7.9,3.3,8.7,8.2c0.8,5,0.2,9.6-4.5,12.7c-0.3,0.2-0.6,0.5-1,0.7
			C771.1,672.8,771.1,672.9,770.9,673.3z M757.1,668.6c2.9,0,5.7,0.3,8.4-0.1c3.1-0.4,4.8-3,4.8-6c0-3.2-1.6-5.4-4.8-5.9
			c-2.7-0.4-5.5-0.3-8.4-0.5C757.1,660.6,757.1,664.6,757.1,668.6z"/>
		<path d="M1024.7,658.7c0,7.9,0,15.7,0,24.2c-2.2-0.4-4.1-1-6.1-1.2c-0.8-0.1-1.7,0.4-2.5,0.6c-5,1.7-9.5,1-13.2-2.8
			c-3.5-3.6-4.4-9.8-2.3-14.6c2-4.5,6.5-7.8,11.2-6.8C1016.2,659.1,1020.4,658.2,1024.7,658.7z M1018.8,670.5c0-5.3-1.3-6.8-6-6.9
			c-4.2,0-7.5,2.9-7.5,6.9c0,3.9,3.3,7.1,7.3,7.1C1017.4,677.6,1018.8,676,1018.8,670.5z"/>
		<path d="M916.1,683.1c-2.3-0.5-4.2-1.1-6.1-1.3c-0.9-0.1-1.9,0.4-2.8,0.7c-5,1.6-9.5,0.8-13.2-3.2c-3.4-3.7-4.2-9.9-1.9-14.6
			c2.3-4.6,6.2-7.3,11.1-6.5c4.3,0.7,8.5,0.4,12.9,0.4C916.1,666.7,916.1,674.4,916.1,683.1z M910.2,670.8c0-5.6-1.2-7.1-6-7.1
			c-4.2,0-7.4,2.9-7.5,6.9c0,3.9,3.3,7.1,7.4,7.1C908.7,677.6,910.2,675.9,910.2,670.8z"/>
		<path d="M814.7,672.1c-5.8,0-11.6,0-17.5,0c1.7,6.3,7.3,7.4,13.3,2.8c1.1,1,2.3,2,3.5,3c-2.7,4.8-10.2,6.7-15.9,4.2
			c-5.8-2.6-8.7-9.6-6.6-15.9c2.1-6,8.4-9.4,14.7-7.9C812.3,659.8,815.7,665.1,814.7,672.1z M809,668.1c-0.6-3.6-2.6-5.2-5.7-5.2
			c-3.1,0.1-5.3,2-5.8,5.2C801.3,668.1,805,668.1,809,668.1z"/>
		<path d="M954.8,683c-2.2-0.4-4.2-0.8-6.1-1.1c-0.5-0.1-1.1,0.3-1.6,0.4c-1.8,0.3-3.7,0.9-5.5,1c-6,0-9.4-3.1-9.6-9.1
			c-0.2-5,0-10,0-15.2c1.9,0,3.7,0,6,0c0,4,0,8,0,12.1c0.1,5.7,3.3,8,8.6,6.1c1.7-0.6,2.5-1.5,2.5-3.5c-0.1-4.7,0-9.4,0-14.1
			c0-0.2,0.2-0.4,0.3-0.7c1.7,0,3.4,0,5.4,0C954.8,666.6,954.8,674.4,954.8,683z"/>
		<path d="M1046.6,682.5c-2.2,0-3.9,0-5.8,0c0-7.9,0-15.7,0-24.1c1.9,0.2,3.9,0.5,5.9,0.7c0.6,0.1,1.2,0,1.8-0.1
			c1.9-0.3,3.9-1,5.8-1c5.6,0.1,8.8,3,9.1,8.6c0.3,5.2,0.1,10.4,0.1,15.7c-1.9,0-3.8,0-6,0c0-4.3,0.1-8.6,0-12.8
			c-0.1-4.8-2.8-6.8-7.5-5.6c-2.3,0.6-3.5,1.7-3.4,4.3C1046.7,672.9,1046.6,677.6,1046.6,682.5z"/>
		<path d="M847.4,660c-0.7,1.5-1.3,2.8-1.9,4.3c-2.1-0.4-4.1-0.9-6.2-1.2c-0.9-0.1-1.9-0.3-2.6,0.1c-0.9,0.4-1.6,1.2-2.5,1.8
			c0.7,0.7,1.3,1.7,2.2,2.1c2.6,0.9,5.4,1.4,8,2.4c3.7,1.5,5.2,5,3.6,8.6c-0.7,1.6-2.2,3.3-3.8,3.9c-5.4,2.3-10.6,1.3-16-1.1
			c0.8-1.6,1.4-2.9,2.2-4.3c2.1,0.5,4.1,1,6.1,1.5c0.7,0.2,1.5,0.5,2.1,0.2c1.5-0.5,2.8-1.3,4.3-2c-1.1-0.9-2.1-2.1-3.4-2.6
			c-2.1-0.9-4.4-1.2-6.5-2.1c-2.9-1.1-4.4-3.3-4.2-6.5c0.2-3.2,2-5.2,4.8-6.2C838.2,657.1,842.7,658.1,847.4,660z"/>
		<path d="M1080.4,664c-1-0.1-1.9-0.2-2.9-0.3c0-1.6,0-3.2,0-4.9c0.9-0.1,1.9-0.3,3.2-0.4c0-3.2,0-6.4,0-9.8c2.1,0,3.9,0,6,0
			c0,3.2,0,6.4,0,9.9c2.4,0,4.5,0,6.8,0c0,1.9,0,3.5,0,5.4c-2.2,0-4.2,0-6.4,0c0,3.8-0.1,7.4,0,11c0.1,2,1.4,3,3.4,3
			c0.9,0,1.8,0,2.6,0c1.1,4.4,0.6,5.2-3.8,5.4c-5.7,0.3-8.5-2.4-8.6-8.2c0-3.4,0-6.8-0.1-10.2C1080.7,664.6,1080.6,664.4,1080.4,664
			z"/>
		<path d="M864.7,664.1c-1.2-0.1-2.1-0.2-3.2-0.4c0-1.5,0-3.1,0-4.8c0.9-0.1,1.9-0.3,3.2-0.5c0-3.2,0-6.3,0-9.7c2.1,0,3.9,0,6,0
			c0,3.2,0,6.3,0,9.8c2.4,0,4.5,0,6.8,0c0,1.9,0,3.5,0,5.3c-2.1,0-4.1,0-6.3,0c0,4.1-0.2,8,0.1,11.8c0.1,0.8,1.6,1.8,2.7,2.2
			c0.9,0.4,2.1,0.1,3.2,0.1c0.9,4.8,0.5,5.3-4.1,5.4c-5.5,0.2-8.3-2.5-8.4-8.1C864.6,671.5,864.7,667.9,864.7,664.1z"/>
		<path d="M986.1,657.2c0,2.9,0,4.6,0,6.3c0,0.4-0.1,0.8-0.2,1.3c-0.7,0-1.2-0.1-1.8-0.1c-4.7-0.2-7,2-7.2,6.8
			c-0.1,3.6,0,7.2,0,10.9c-2.1,0-3.9,0-5.9,0c0-7.9,0-15.6,0-23.6c1.9,0,3.7,0,5.7,0c0.1,0.7,0.3,1.5,0.3,1.8
			C979.8,659.6,982.7,658.5,986.1,657.2z"/>
		<path d="M1229.1,659.3c0.1,2.8-2,5.1-4.7,5.2c-2.7,0.1-5.3-2.2-5.4-5c-0.1-2.6,2.2-5.1,4.8-5.2
			C1226.7,654.3,1229,656.4,1229.1,659.3z"/>
		<path d="M1168,683.7c2.1,0.3,3.5,1.4,3.5,3.6c0,2.2-1.6,3.8-3.8,3.7c-2.1-0.1-3.7-1.8-3.5-4C1164.4,684.8,1165.8,683.8,1168,683.7
			z"/>
		<path d="M1147.8,652.5c0.3-3.1,1.6-4.2,3.7-4.1c1.9,0.2,3.1,1.4,3,3.4c-0.1,2.1-1.6,3.5-3.6,3.1
			C1149.6,654.6,1148.6,653.1,1147.8,652.5z"/>
		<path d="M1208.8,641.6c-1.2-1.6-2.5-2.5-2.5-3.4c0-0.9,1.4-2.3,2.2-2.4c0.8,0,2.3,1.3,2.4,2.1
			C1211,638.8,1209.9,639.9,1208.8,641.6z"/>
		<path d="M1155.2,703.3c-1.2,0.7-1.9,1.4-2.6,1.4c-0.5,0-1.5-1.1-1.4-1.4c0.2-0.7,1-1.6,1.6-1.6
			C1153.4,701.5,1154.1,702.4,1155.2,703.3z"/>
		<path class="st0" d="M1167.1,568.5c0.2,11.6,0.1,23.2-3,34.5c-0.9,3.4-2.4,6.7-4.1,9.9c-2.2,4.2-5.9,6.5-10.8,6.1
			c-4.7-0.3-7.5-3.6-8.9-7.5c-2-5.5-3.8-11.2-4.5-17c-2.1-17-2.3-34.1,1.4-51c0.7-3.3,2.1-6.7,3.9-9.6c4.1-6.8,12.4-7.5,18.7-2.6
			c5.5,4.3,6.2,10.1,6.8,16.2c0.2,2.5,0.5,5,0.6,7.5C1167.2,559.5,1167.1,564,1167.1,568.5z"/>
		<path class="st0" d="M941.2,573.6c-1,9.4-1.9,19.5-3.5,29.6c-0.6,3.9-2.5,7.8-4.6,11.2c-4.3,6.7-13.4,6.7-18.3,0.4
			c-3.4-4.5-4.9-9.8-5.6-15.3c-2.3-17.5-2.6-35.1,0.2-52.5c0.8-5,2.7-10.1,5.3-14.4c4.2-7,14.1-7.2,18.6-0.3
			c2.5,3.8,4.4,8.4,5.1,12.9C939.8,554.2,940.3,563.5,941.2,573.6z"/>
		<path class="st0" d="M1020.1,572.2c1-9.1,1.7-19,3.2-28.9c0.6-3.9,2.5-7.8,4.7-11.2c4.3-6.6,13.9-6.8,18.2-0.2
			c2.6,4,4.6,8.8,5.4,13.4c3.1,18.9,3.1,37.8-0.4,56.6c-0.8,4.3-2.7,8.6-5,12.4c-4.1,6.7-13.7,7-17.9,0.4c-2.7-4.1-4.8-9.1-5.5-14
			C1021.4,591.7,1021,582.4,1020.1,572.2z"/>
		<path class="st0" d="M1178.3,668.9c9.7,1.3,18.1-0.8,25.5-7.7C1201.3,670.3,1185.2,674.1,1178.3,668.9z"/>
		<path class="st0" d="M757.1,668.6c0-4,0-8,0-12.4c2.9,0.1,5.7,0,8.4,0.5c3.2,0.5,4.8,2.7,4.8,5.9c0,3-1.8,5.6-4.8,6
			C762.8,668.9,760,668.6,757.1,668.6z"/>
		<path class="st0" d="M1018.8,670.5c0,5.5-1.4,7.1-6.1,7.1c-4.1,0-7.4-3.2-7.3-7.1c0-4,3.3-6.9,7.5-6.9
			C1017.5,663.7,1018.8,665.2,1018.8,670.5z"/>
		<path class="st0" d="M910.2,670.8c0,5.2-1.5,6.8-6.1,6.8c-4.1,0-7.4-3.1-7.4-7.1c0-4,3.2-6.9,7.5-6.9
			C909,663.7,910.2,665.2,910.2,670.8z"/>
		<path class="st0" d="M809,668.1c-4,0-7.7,0-11.5,0c0.5-3.1,2.7-5.1,5.8-5.2C806.4,662.8,808.3,664.5,809,668.1z"/>
	</g>
</g>
</svg>
