<svg width="48" height="49" viewBox="0 0 48 49" fill="none" xmlns="http://www.w3.org/2000/svg">
<g clip-path="url(#clip0_23_215)">
<g clip-path="url(#clip1_23_215)">
<path d="M14.7367 34.6705L14.5414 35.198C14.38 35.634 13.9671 35.9038 13.5279 35.9038C13.4032 35.9038 13.2764 35.882 13.1527 35.8362C12.5931 35.6288 12.3073 35.0072 12.5145 34.4475L12.7098 33.92C12.917 33.3602 13.5385 33.0746 14.0985 33.2818C14.6581 33.4891 14.9439 34.1108 14.7367 34.6705ZM10.5267 36.4149C9.96698 36.2071 9.34522 36.4927 9.13773 37.0525L8.94224 37.5798C8.73475 38.1394 9.02017 38.7614 9.57985 38.9688C9.70377 39.0148 9.83057 39.0365 9.95545 39.0365C10.3945 39.0365 10.8073 38.7669 10.9688 38.3312L11.1643 37.8038C11.3716 37.2444 11.0862 36.6225 10.5267 36.4149ZM13.9493 43.6502C13.3499 44.4683 12.7837 45.2411 12.3833 45.866C11.3343 47.5032 9.58562 48.1554 7.79539 48.1554C6.82613 48.1554 5.84498 47.9642 4.95569 47.6348C2.42651 46.6979 0.0611202 44.424 0.478267 41.4559C0.581533 40.7212 0.655381 39.7663 0.733551 38.7554C1.06808 34.4313 1.48427 29.0499 4.63449 27.0334C4.75024 26.9593 4.8684 26.8907 4.98883 26.8274C4.27942 25.1657 4.36155 23.259 5.27954 21.7526C5.40478 21.5471 5.59522 21.3892 5.82049 21.3041C7.35831 20.7231 9.12248 20.9186 10.5787 21.777C11.6682 20.484 13.266 19.7164 14.9113 19.7544C15.1519 19.7601 15.3839 19.8459 15.5701 19.9984C16.8422 21.0394 17.5555 22.6649 17.5399 24.3555C19.2045 24.6526 20.6699 25.6539 21.4582 27.0964C21.5736 27.3078 21.6153 27.5516 21.5764 27.7893C21.2913 29.53 20.1114 31.0301 18.4908 31.8288C18.5411 31.9552 18.586 32.0842 18.6256 32.2159C19.702 35.798 16.5122 40.1518 13.9493 43.6502ZM16.5557 32.8379C16.4637 32.5319 16.3156 32.2494 16.1096 31.9889C16.0794 31.9566 16.0508 31.9223 16.0245 31.8864C15.5767 31.3713 14.8913 30.946 13.9559 30.5994L9.23079 28.8491C8.29551 28.5026 7.49856 28.3793 6.82325 28.4778C6.77954 28.4881 6.73559 28.4956 6.69128 28.5004C6.36539 28.5638 6.06905 28.6817 5.80007 28.8539C3.55644 30.2901 3.17063 35.2793 2.88869 38.9222C2.80788 39.9678 2.73139 40.9553 2.61876 41.7568C2.36888 43.5347 3.98955 44.9721 5.70653 45.6082C7.42639 46.2456 9.5951 46.2113 10.5635 44.7C11.0004 44.0182 11.5859 43.2191 12.2057 42.373C14.365 39.4255 17.3223 35.389 16.5557 32.8379ZM17.2227 30.0277C18.2627 29.6299 19.0623 28.804 19.3582 27.8115C18.7122 26.9217 17.5832 26.3877 16.3805 26.4276C16.0479 26.4379 15.7262 26.2947 15.5128 26.0375C15.2996 25.7801 15.2172 25.4389 15.2899 25.1126C15.5515 23.9374 15.2352 22.7301 14.4802 21.9309C13.3869 22.0454 12.3604 22.7553 11.7933 23.8174C11.6359 24.1121 11.3511 24.3175 11.0217 24.3737C10.6921 24.4301 10.3555 24.3306 10.1093 24.1046C9.22226 23.2903 8.01789 22.9602 6.94861 23.2149C6.5263 24.1605 6.59486 25.308 7.12464 26.2873C7.17651 26.2859 7.22863 26.2852 7.2811 26.2852C8.11299 26.2852 9.01477 26.4641 9.98175 26.8224L14.7068 28.5728C15.7345 28.9534 16.5746 29.4396 17.2227 30.0277ZM10.7369 32.0366C10.1775 31.8292 9.55548 32.1148 9.3481 32.6746L9.15274 33.202C8.94525 33.7615 9.23091 34.3834 9.79059 34.5908C9.91439 34.6366 10.0412 34.6584 10.1659 34.6584C10.6051 34.6584 11.0179 34.3887 11.1794 33.9528L11.3748 33.4254C11.5821 32.866 11.2965 32.2441 10.7369 32.0366ZM45.3698 10.5975C43.4238 12.5433 40.6598 13.252 38.2203 12.5079L37.1568 41.2196C37.1617 41.5513 37.0675 42.0227 36.627 42.4858C35.2167 43.9685 30.74 44.4946 27.3348 44.4946C25.6946 44.4946 17.5131 44.3366 17.5131 41.2161C17.5131 40.6192 17.9969 40.1354 18.5938 40.1354C19.1266 40.1354 19.5693 40.5209 19.6581 41.0282C20.1728 41.4988 22.8625 42.3332 27.3348 42.3332C31.7531 42.3332 34.4408 41.5239 35 41.0557L36.0054 13.9144C35.5111 14.088 34.9946 14.2194 34.5239 14.3246C32.5915 14.7566 30.0384 14.9943 27.3348 14.9943C24.6311 14.9943 22.0779 14.7566 20.1455 14.3246C19.6748 14.2194 19.1583 14.0879 18.6639 13.9144L18.784 17.1578C18.8061 17.7543 18.3404 18.2558 17.744 18.2777C17.1466 18.2972 16.6461 17.8342 16.624 17.2377L16.4236 11.8214C16.4216 11.7885 16.4206 11.755 16.4205 11.7212C16.4205 11.7163 16.4205 11.7114 16.4205 11.7066C16.4287 10.1568 18.5318 9.5437 19.2237 9.34209C19.7967 9.17483 20.3966 9.5042 20.5636 10.0772C20.7307 10.6501 20.4015 11.2501 19.8285 11.4171C19.4516 11.527 19.1764 11.6308 18.9774 11.7197C20.0977 12.2066 22.9744 12.8331 27.3349 12.8331C31.7069 12.8331 34.5872 12.2033 35.701 11.7158C34.5872 11.2283 31.7069 10.5985 27.3349 10.5985C26.3829 10.5985 25.4508 10.6292 24.5531 10.6901C24.5318 11.2123 24.1334 11.656 23.5979 11.7182C23.0059 11.7876 22.4687 11.3623 22.3996 10.7696L21.3069 1.36587C21.238 0.772928 21.6628 0.236545 22.2556 0.167621C22.8479 0.0979761 23.385 0.523528 23.4539 1.11623L24.3165 8.53986C25.2906 8.47165 26.3025 8.43719 27.3348 8.43719C30.0384 8.43719 32.5915 8.67494 34.5239 9.10698C35.0396 9.22226 35.6101 9.36887 36.1465 9.56808C35.8751 7.42939 36.635 5.17807 38.2928 3.52053C40.4996 1.31339 43.7593 0.69812 46.4042 1.98919C46.6206 2.09485 46.7955 2.26981 46.9012 2.48618C48.1922 5.1304 47.577 8.39024 45.3698 10.5975ZM45.1098 3.78049C43.3595 3.10578 41.2783 3.59137 39.821 5.04886C38.6977 6.17206 38.1514 7.66582 38.2691 9.09305L41.4344 5.92759C41.8565 5.50564 42.5407 5.50564 42.9628 5.92759C43.3848 6.34966 43.3848 7.03386 42.9628 7.45605L39.7976 10.6213C41.2248 10.7391 42.7182 10.1926 43.8414 9.06928C45.2989 7.61166 45.7848 5.53061 45.1098 3.78049ZM27.5696 17.8044L27.172 18.2022C26.75 18.6244 26.75 19.3086 27.1722 19.7307C27.3832 19.9416 27.6597 20.0471 27.9362 20.0471C28.2129 20.0471 28.4894 19.9415 28.7005 19.7304L29.0982 19.3326C29.5202 18.9104 29.5202 18.2262 29.0981 17.8041C28.6758 17.3821 27.9916 17.3823 27.5696 17.8044ZM24.1913 16.8231C23.5985 16.8919 23.1736 17.4284 23.2426 18.0214L25.6916 39.0964C25.7556 39.647 26.2226 40.0525 26.7638 40.0525C26.8055 40.0525 26.8476 40.0499 26.8899 40.045C27.4827 39.9762 27.9075 39.4397 27.8386 38.8468L25.3895 17.7717C25.3207 17.1789 24.7842 16.7543 24.1913 16.8231ZM31.8904 22.4954C32.1669 22.4954 32.4434 22.3899 32.6545 22.1789L33.0522 21.7812C33.4743 21.3591 33.4743 20.6748 33.0522 20.2528C32.6302 19.8308 31.946 19.8308 31.5239 20.2528L31.1262 20.6504C30.7041 21.0725 30.7041 21.7568 31.1262 22.1789C31.3373 22.39 31.6138 22.4954 31.8904 22.4954ZM30.1274 23.9922C29.7053 23.5702 29.0211 23.5702 28.5991 23.9922C28.177 24.4143 28.177 25.0986 28.5991 25.5206L28.9968 25.9183C29.2077 26.1293 29.4844 26.2349 29.7609 26.2349C30.0375 26.2349 30.314 26.1293 30.5251 25.9183C30.9472 25.4963 30.9472 24.812 30.5251 24.3899L30.1274 23.9922ZM36.5899 44.5648C36.1431 44.1689 35.46 44.2107 35.0644 44.6575C34.6503 45.1252 31.9581 45.9986 27.3348 45.9986C22.7478 45.9986 20.0424 45.1179 19.6132 44.6465C19.2115 44.2047 18.5279 44.1729 18.0866 44.5746C17.6452 44.9765 17.6131 45.6598 18.0148 46.1012C19.3978 47.6207 23.8997 48.1599 27.3348 48.1599C30.8018 48.1599 35.3301 47.6179 36.6826 46.0903C37.0783 45.6435 37.0369 44.9605 36.5899 44.5648Z" fill="white"/>
</g>
</g>
<defs>
<clipPath id="clip0_23_215">
<rect width="48" height="48" fill="white" transform="translate(0 0.160156)"/>
</clipPath>
<clipPath id="clip1_23_215">
<rect width="48" height="48" fill="white" transform="translate(0 0.160156)"/>
</clipPath>
</defs>
</svg>
