<svg width="32" height="32" viewBox="0 0 32 32" fill="none" xmlns="http://www.w3.org/2000/svg">
<g clip-path="url(#clip0_24_184)">
<path d="M26.3429 10.9141C26.3429 11.1427 26.3429 11.3713 26.3429 11.5713C26.3429 18.5141 21.0286 26.5427 11.3143 26.5427C8.28571 26.5713 5.54286 25.7141 3.17143 24.1998C3.57143 24.257 4 24.257 4.42857 24.257C6.91429 24.257 9.2 23.4284 11 21.9998C8.68571 21.9427 6.74286 20.4284 6.05714 18.3427C6.37143 18.3998 6.74286 18.3998 7.02857 18.3998C7.48571 18.3998 7.97143 18.3427 8.4 18.1998C6 17.7427 4.14286 15.5713 4.14286 13.057C4.14286 12.9998 4.14286 12.9998 4.14286 12.9998C4.85714 13.3998 5.68571 13.6284 6.54286 13.657C5.11429 12.7141 4.17143 11.1141 4.17143 9.25698C4.17143 8.28555 4.45714 7.39983 4.88571 6.6284C7.48571 9.79983 11.3714 11.9141 15.7429 12.1141C15.6857 11.7141 15.6286 11.3141 15.6286 10.8855C15.6571 8.0284 18 5.68555 20.9143 5.68555C22.4571 5.68555 23.8 6.31412 24.7714 7.31412C26 7.08555 27.0857 6.65698 28.1143 6.0284C27.7143 7.25698 26.8857 8.28555 25.8 8.91412C26.8571 8.79983 27.8857 8.51412 28.8286 8.08555C28.2571 9.2284 27.3429 10.1427 26.3429 10.9141Z" fill="#111111"/>
</g>
<defs>
<clipPath id="clip0_24_184">
<rect width="32" height="32" fill="white"/>
</clipPath>
</defs>
</svg>
